<svg xmlns="http://www.w3.org/2000/svg" viewBox="0 0 1056 642" shape-rendering="crispEdges"><rect width="1056" height="642" fill="#0f0f11"/><rect x="272" y="185" width="32" height="32" fill="#ededef"/><rect x="312" y="185" width="32" height="32" fill="#ededef"/><rect x="352" y="185" width="32" height="32" fill="#ededef"/><rect x="232" y="225" width="32" height="32" fill="#ededef"/><rect x="392" y="225" width="32" height="32" fill="#ededef"/><rect x="232" y="265" width="32" height="32" fill="#ededef"/><rect x="232" y="305" width="32" height="32" fill="#ededef"/><rect x="312" y="305" width="32" height="32" fill="#ededef"/><rect x="352" y="305" width="32" height="32" fill="#ededef"/><rect x="392" y="305" width="32" height="32" fill="#ededef"/><rect x="232" y="345" width="32" height="32" fill="#ededef"/><rect x="392" y="345" width="32" height="32" fill="#ededef"/><rect x="232" y="385" width="32" height="32" fill="#ededef"/><rect x="392" y="385" width="32" height="32" fill="#ededef"/><rect x="272" y="425" width="32" height="32" fill="#ededef"/><rect x="312" y="425" width="32" height="32" fill="#ededef"/><rect x="352" y="425" width="32" height="32" fill="#ededef"/><rect x="552" y="185" width="32" height="32" fill="#b6a8ff"/><rect x="512" y="225" width="32" height="32" fill="#b6a8ff"/><rect x="552" y="225" width="32" height="32" fill="#b6a8ff"/><rect x="472" y="265" width="32" height="32" fill="#b6a8ff"/><rect x="552" y="265" width="32" height="32" fill="#b6a8ff"/><rect x="552" y="305" width="32" height="32" fill="#b6a8ff"/><rect x="552" y="345" width="32" height="32" fill="#b6a8ff"/><rect x="552" y="385" width="32" height="32" fill="#b6a8ff"/><rect x="472" y="425" width="32" height="32" fill="#b6a8ff"/><rect x="512" y="425" width="32" height="32" fill="#b6a8ff"/><rect x="552" y="425" width="32" height="32" fill="#b6a8ff"/><rect x="592" y="425" width="32" height="32" fill="#b6a8ff"/><rect x="632" y="425" width="32" height="32" fill="#b6a8ff"/><rect x="632" y="185" width="32" height="32" fill="#ededef"/><rect x="672" y="185" width="32" height="32" fill="#ededef"/><rect x="712" y="185" width="32" height="32" fill="#ededef"/><rect x="752" y="185" width="32" height="32" fill="#ededef"/><rect x="792" y="185" width="32" height="32" fill="#ededef"/><rect x="712" y="225" width="32" height="32" fill="#ededef"/><rect x="712" y="265" width="32" height="32" fill="#ededef"/><rect x="712" y="305" width="32" height="32" fill="#ededef"/><rect x="712" y="345" width="32" height="32" fill="#ededef"/><rect x="712" y="385" width="32" height="32" fill="#ededef"/><rect x="712" y="425" width="32" height="32" fill="#ededef"/></svg>
